<?xml version="1.0" encoding="utf-8" ?>
<svg xmlns="http://www.w3.org/2000/svg" xmlns:xlink="http://www.w3.org/1999/xlink" width="495" height="495">
	<path fill="#FEFEFE" transform="scale(0.483398 0.483398)" d="M-0 -0L1024 0L1024 1024L-0 1024L0 -0Z"/>
	<defs>
		<linearGradient id="gradient_0" gradientUnits="userSpaceOnUse" x1="496.18686" y1="799.51031" x2="529.65356" y2="192.3116">
			<stop offset="0" stop-color="#00A67F"/>
			<stop offset="1" stop-color="#08D1C7"/>
		</linearGradient>
	</defs>
	<path fill="url(#gradient_0)" transform="scale(0.483398 0.483398)" d="M334.718 277.953C341.296 267.939 351.38 258.433 360.219 250.394C384.497 228.311 416.174 210.246 447.661 201.023C472.378 193.783 498.961 191.016 524.663 192.253C562.006 194.049 597.3 205.778 629.375 224.735C634.113 227.536 638.678 230.554 643.105 233.825C645.095 235.295 647.408 236.771 649.065 238.594C656.351 243.176 663.504 249.816 669.648 255.828C683.156 269.047 695.546 283.513 704.906 300L713.967 316.739C714.668 318.037 715.847 321.051 716.808 321.982C716.899 322.07 718.415 322.358 718.558 322.394L726.025 324.521C739.278 328.794 751.769 334.699 763.146 342.761C777.787 353.137 789.937 366.414 799.399 381.634C800.998 384.206 809.283 402.161 809.474 402.293C810.425 402.95 813.556 403.393 814.785 403.75C824.114 406.46 832.941 409.985 841.556 414.462C876.53 432.64 903.494 461.003 919.516 497.14C924.028 507.318 927.309 517.952 930.061 528.727C932.15 537.268 933.138 545.937 933.805 554.688C936.654 592.067 928.283 628.553 908.838 660.62C886.647 697.218 849.329 724.487 807.75 734.503C797.33 737.013 786.464 738.942 775.75 739.496L713.754 739.88L698.482 739.64C697.653 739.621 694.986 739.276 694.308 739.529C693.409 739.865 686.075 749.26 684.848 750.684C676.569 760.293 667.253 769.223 657.347 777.14C637.307 793.156 615.418 806.582 591.5 816.017C548.997 832.783 499.654 836.325 455.359 824.942C432.35 819.028 411.256 809.577 391.061 797.157C368.05 783.005 346.487 763.436 330.319 741.794C329.834 741.145 329.724 740.702 328.85 740.517C327.164 740.161 324.611 740.526 322.857 740.541L307.822 740.649C287.507 740.74 266.791 741.287 246.523 740.011C173.382 735.41 110.512 680.767 93.6038 609.907C87.6163 584.815 87.5164 557.782 92.8157 532.542C97.427 512.378 104.825 493.267 115.756 475.667C135.044 444.613 164.621 419.912 198.718 406.785C203.951 404.77 209.419 402.43 214.884 401.213C215.723 401.026 216.414 398.75 216.77 397.95C222.068 386.02 228.037 375.172 236.512 365.181C251.364 347.674 271.124 334.056 293.131 327.247L302.5 324.655C303.293 324.473 306.387 324.196 306.908 323.816C307.392 323.462 308.699 320.159 309.036 319.5L317.838 303.031C322.759 294.431 328.335 285.534 334.718 277.953Z"/>
	<path fill="#FEFEFE" transform="scale(0.483398 0.483398)" d="M813.835 452.392L813.701 451.591C813.052 447.378 813.554 442.457 813.574 438.168C824.047 442.605 834.4 447.397 843.869 453.762C864.534 467.653 881.007 488.34 890.29 511.393C902.242 541.077 902.639 575.013 889.867 604.529C875.122 638.608 848.581 664.328 813.986 677.686C803.368 681.785 791.478 684.991 780.128 686.176C766.526 687.597 752.206 686.763 738.5 686.862C729.336 686.928 719.595 687.679 710.512 686.869L716.975 672.76L774.856 672.496C805.775 670.882 836.971 655.021 857.445 632.026C876.863 610.218 887.646 581.054 885.972 551.873C886.287 541.467 882.86 528.73 879.255 519.085C867.563 487.803 843.77 465.935 813.835 452.392Z"/>
	<path fill="#FEFEFE" transform="scale(0.483398 0.483398)" d="M312.926 687.575L312.169 687.948C311.075 688.257 308.944 688.003 307.75 688.005L299.19 688.023L252.011 687.858C246.51 687.614 241.003 687.121 235.562 686.263C225.899 684.738 215.911 681.744 206.872 678.033C175.13 665.005 148.743 638.972 135.575 607.267C122.354 575.431 122.274 539.807 135.631 507.969C149.392 475.166 177.102 451.126 209.591 437.885L210.027 453.083C201.303 455.299 194.61 459.371 187.352 464.585C174.24 474.003 163.452 485.509 155.191 499.422C146.122 514.695 139.569 534.605 139.653 552.506C139.103 574.485 143.827 596.793 155.234 615.79C160.387 624.372 167.013 632.255 173.925 639.479C194.89 661.394 224.935 673.858 255.114 674.38L306.938 673.993L312.926 687.575Z"/>
	<path fill="#05CC86" transform="scale(0.483398 0.483398)" d="M728.913 634.366C735.308 635.138 741.74 636.185 748.168 636.58C767.555 637.771 787.139 636.103 805.946 631.169C836.463 623.164 863.612 604.336 877.339 575.258C879.468 570.749 881.153 565.929 882.649 561.178C883.578 558.229 884.14 554.895 885.738 552.243L885.972 551.873C887.646 581.054 876.863 610.218 857.445 632.026C836.971 655.021 805.775 670.882 774.856 672.496L716.975 672.76C722.424 660.49 725.399 647.279 728.913 634.366Z"/>
	<path fill="#05CC86" transform="scale(0.483398 0.483398)" d="M139.653 552.506C141.884 554.374 142.565 560.057 143.378 563C144.536 567.192 145.761 571.381 147.552 575.353C166.967 618.419 213.721 636.005 258.549 632.294C266.31 631.652 274.017 629.879 281.543 627.945C284.949 627.069 289.474 626.105 292.375 624.111L306.938 673.993L255.114 674.38C224.935 673.858 194.89 661.394 173.925 639.479C167.013 632.255 160.387 624.372 155.234 615.79C143.827 596.793 139.103 574.485 139.653 552.506Z"/>
	<path fill="#08D1C7" transform="scale(0.483398 0.483398)" d="M210.027 453.083C211.748 490.332 222.816 523.927 250.841 549.714C261.221 559.265 273.157 565.973 285.926 571.773C286.69 588.814 287.602 607.679 292.375 624.111C289.474 626.105 284.949 627.069 281.543 627.945C274.017 629.879 266.31 631.652 258.549 632.294C213.721 636.005 166.967 618.419 147.552 575.353C145.761 571.381 144.536 567.192 143.378 563C142.565 560.057 141.884 554.374 139.653 552.506C139.569 534.605 146.122 514.695 155.191 499.422C163.452 485.509 174.24 474.003 187.352 464.585C194.61 459.371 201.303 455.299 210.027 453.083Z"/>
	<path fill="#08D1C7" transform="scale(0.483398 0.483398)" d="M813.835 452.392C843.77 465.935 867.563 487.803 879.255 519.085C882.86 528.73 886.287 541.467 885.972 551.873L885.738 552.243C884.14 554.895 883.578 558.229 882.649 561.178C881.153 565.929 879.468 570.749 877.339 575.258C863.612 604.336 836.463 623.164 805.946 631.169C787.139 636.103 767.555 637.771 748.168 636.58C741.74 636.185 735.308 635.138 728.913 634.366C731.472 621.231 732.521 607.788 732.684 594.425L732.583 580.228C732.552 578.474 732.155 576.03 732.511 574.38C732.763 573.213 739.098 570.255 740.5 569.467C750.741 563.715 760.771 556.771 769.532 548.925C794.578 526.494 811.814 494.583 813.595 460.755C813.928 457.917 813.944 455.244 813.835 452.392Z"/>
	<defs>
		<linearGradient id="gradient_1" gradientUnits="userSpaceOnUse" x1="527.17407" y1="829.77832" x2="503.52658" y2="437.85004">
			<stop offset="0" stop-color="#015C4C"/>
			<stop offset="1" stop-color="#00A67F"/>
		</linearGradient>
	</defs>
	<path fill="url(#gradient_1)" transform="scale(0.483398 0.483398)" d="M784.2 426.029C786.368 427.394 787.26 428.857 788.581 431L800.922 454.033L813.622 453.377L813.595 460.755C811.814 494.583 794.578 526.494 769.532 548.925C760.771 556.771 750.741 563.715 740.5 569.467C739.098 570.255 732.763 573.213 732.511 574.38C732.155 576.03 732.552 578.474 732.583 580.228L732.684 594.425C732.521 607.788 731.472 621.231 728.913 634.366C725.399 647.279 722.424 660.49 716.975 672.76L710.512 686.869C709.693 687.376 708.213 690.621 707.677 691.584L698.328 708.917L740.572 709.059C761.785 708.97 782.163 709.178 802.925 704.12C817.767 700.504 831.446 694.258 844.395 686.215C883.767 661.76 908.565 624.069 918.633 579.094L924.675 548.008C925.867 541.919 926.444 534.556 929.739 529.237L930.061 528.727C932.15 537.268 933.138 545.937 933.805 554.688C936.654 592.067 928.283 628.553 908.838 660.62C886.647 697.218 849.329 724.487 807.75 734.503C797.33 737.013 786.464 738.942 775.75 739.496L713.754 739.88L698.482 739.64C697.653 739.621 694.986 739.276 694.308 739.529C693.409 739.865 686.075 749.26 684.848 750.684C676.569 760.293 667.253 769.223 657.347 777.14C637.307 793.156 615.418 806.582 591.5 816.017C548.997 832.783 499.654 836.325 455.359 824.942C432.35 819.028 411.256 809.577 391.061 797.157C368.05 783.005 346.487 763.436 330.319 741.794C329.834 741.145 329.724 740.702 328.85 740.517C327.164 740.161 324.611 740.526 322.857 740.541L307.822 740.649C287.507 740.74 266.791 741.287 246.523 740.011C173.382 735.41 110.512 680.767 93.6038 609.907C87.6163 584.815 87.5164 557.782 92.8157 532.542C93.2305 532.945 93.7571 533.258 94.0599 533.75C94.508 534.478 94.7245 536.327 94.9128 537.178L97.0776 548.64L101.863 570.861C108.177 599.742 120.072 627.835 138.781 650.915C161.823 679.342 196.561 699.209 232.522 705.424C249.003 708.273 265.197 708.104 281.841 708.104L321.497 708.032L322.734 708.009L312.926 687.575L306.938 673.993L292.375 624.111C287.602 607.679 286.69 588.814 285.926 571.773C273.157 565.973 261.221 559.265 250.841 549.714C222.816 523.927 211.748 490.332 210.027 453.083C210.279 452.212 210.337 451.501 211 450.853C212.943 454.404 213.194 460.747 214.068 464.847C214.882 468.666 216.051 472.401 217.154 476.145C223.079 496.261 236.54 515.669 252.75 528.839C263.44 537.524 274.845 544.319 287.104 550.531C291.796 552.908 297.042 554.678 301.486 557.463C300.541 559.232 299.103 561.399 298.65 563.343C298.07 565.834 298.437 569.36 298.464 571.947C298.704 594.924 303.142 618.491 309.826 640.413C326.794 696.056 366.008 749.956 417.868 777.465C464.893 802.411 518.963 806.318 569.58 790.667C611.277 777.776 646.013 754.02 674.409 720.962C683.61 710.251 692.03 698.812 698.607 686.279C716.541 652.1 728.533 615.45 727.367 576.5C727.043 565.673 724.74 554.947 724.253 544.158C742.38 535.647 756.983 523.37 768.107 506.728C781.413 486.821 788.397 463.21 786.388 439.25C786.016 434.815 785.056 430.392 784.2 426.029Z"/>
	<path fill="#FEFEFE" transform="scale(0.483398 0.483398)" d="M358.784 299.097L365.474 290.838C397.47 251.784 445.984 229.623 495.592 224.853C534.053 221.155 576.384 230.512 609.757 250.014C617.642 254.621 625.499 259.699 632.682 265.337L643.58 274.584C658.066 289.223 670.723 304.246 680.817 322.389C684.362 328.76 687.458 335.41 690.291 342.128L693.08 348.979C693.245 349.4 693.619 350.826 693.877 351.052C694.074 351.225 697.907 351.296 698.424 351.331C701.799 351.558 705.147 352.058 708.471 352.683C735.849 357.831 759.576 374.876 773.409 399.129C778.297 407.699 781.457 416.604 784.2 426.029C785.056 430.392 786.016 434.815 786.388 439.25C788.397 463.21 781.413 486.821 768.107 506.728C756.983 523.37 742.38 535.647 724.253 544.158C716.967 547.208 710.216 549.683 702.51 551.514C703.949 558.754 704.5 566.359 704.503 573.736C704.53 626.666 681.339 679.079 644.045 716.375C609.921 750.5 561.601 774.682 512.7 774.675C506.808 774.674 500.753 774.798 494.894 774.228C452.765 770.131 410.687 750.05 380.87 720.019C351.403 690.341 331.146 647.85 323.673 606.85C320.43 589.059 319.42 570.039 319.468 551.996C318.001 550.994 315.927 550.607 314.25 549.98L305.376 546.382C292.406 541.054 279.69 532.848 269.737 522.961C249.918 503.274 238.454 476.385 238.347 448.418C238.249 422.742 247.235 397.131 265.669 378.8C283.037 361.528 307.266 351.469 331.751 351.492C337.418 331.953 347.442 315.726 358.784 299.097Z"/>
	<path fill="#08D1C7" transform="scale(0.483398 0.483398)" d="M550.849 756.162C553.287 753.763 556.614 752.368 559.502 750.545L596.419 728.474L624.537 711.703C627.942 709.688 631.174 706.785 634.925 705.601C618.905 723.476 597.687 737.078 576.035 747.008C568.086 750.654 559.426 754.339 550.849 756.162Z"/>
	<path fill="#05CC86" transform="scale(0.483398 0.483398)" d="M250.532 443.801L251.105 444.491C252.801 446.687 252.985 451.32 253.736 454.077C254.633 457.367 255.876 460.843 257.25 463.958C269.542 491.817 297.489 508.871 326.603 514.246C341.888 517.068 357.774 517.221 373.022 514.106C377.247 513.243 381.985 512.294 385.999 510.713L385.99 540.758L340 540.962C314.618 540.41 291.509 527.235 274.357 509.147C258.365 492.285 250.043 466.792 250.532 443.801Z"/>
	<path fill="#05CC86" transform="scale(0.483398 0.483398)" d="M772.909 446.504C773.252 471.219 763.482 494.935 746.223 512.657C729.92 529.397 707.27 540.073 683.75 540.446L637.903 540.541L637.947 512.502C656.2 512.693 674.312 512.746 692.379 509.806C716.262 505.92 743.568 495.908 758.163 475.388C761.616 470.532 764.931 465.743 767.271 460.22C769.031 456.063 770.132 450.503 772.652 446.861L772.909 446.504Z"/>
	<path fill="#05CC86" transform="scale(0.483398 0.483398)" d="M385.925 554.944L385.907 615.737L386.422 667.446L386.479 692.364C386.469 697.24 386.792 702.372 386.12 707.207C378.508 697.754 370.89 687.867 364.565 677.506C346.287 647.563 336.35 614.403 333.676 579.5C333.053 571.365 333.218 563.124 333.215 554.972L385.925 554.944Z"/>
	<path fill="#08D1C7" transform="scale(0.483398 0.483398)" d="M386.422 667.446L385.411 667.114C370.996 645.089 361.584 622.883 356.686 596.936C355.272 589.443 353.991 582.168 353.728 574.538C355.557 573.631 359.731 574.043 361.926 573.976L385.772 573.523L385.907 615.737L386.422 667.446Z"/>
	<path fill="#08D1C7" transform="scale(0.483398 0.483398)" d="M637.935 554.194L688.548 553.509C695.641 597.84 680.859 646.43 654.876 682.364L638.16 702.477C636.159 695.905 637.013 686.14 637.116 679.25C637.141 677.564 637.503 675.654 637.365 674C637.228 672.362 637.161 671.257 637.36 669.556L637.516 573.512L637.935 554.194Z"/>
	<path fill="#08D1C7" transform="scale(0.483398 0.483398)" d="M250.532 443.801C250.666 423.438 260.264 402.441 274.628 388.242C288.984 374.051 308.984 364.852 329.341 365.192C342.394 365.41 356.083 368.094 367.803 374C375.57 377.913 382.607 383.229 389.423 388.581C392.449 375.603 396.509 362.932 402.352 350.929C415.814 323.279 437.514 300.28 463.571 284.15C479.341 274.387 499.311 267.443 517.668 264.649C524.022 263.681 530.531 263.698 536.824 262.464C522.724 260.38 508.774 258.817 494.491 259.55C465.567 261.033 432.918 273.008 409.717 290.256C386.966 307.171 369.642 327.815 358.541 354.043L345.313 352.165C360.64 309.686 392.765 274.932 433.581 255.701C477.99 234.778 529.014 232.663 575.157 249.305C619.393 265.26 653.794 297.001 673.738 339.5L683.912 364.66C688.587 364.566 693.412 364.25 698.069 364.706C716.371 366.498 734.563 374.556 747.806 387.383C763.256 402.347 772.701 424.544 772.925 446.056L772.909 446.504L772.652 446.861C770.132 450.503 769.031 456.063 767.271 460.22C764.931 465.743 761.616 470.532 758.163 475.388C743.568 495.908 716.262 505.92 692.379 509.806C674.312 512.746 656.2 512.693 637.947 512.502L638.003 451.25L511.586 377.097L427.309 428.126L399.717 444.338C395.128 447.043 390.239 449.49 386.118 452.897C385.227 458.962 385.913 466.046 385.938 472.236L385.999 510.713C381.985 512.294 377.247 513.243 373.022 514.106C357.774 517.221 341.888 517.068 326.603 514.246C297.489 508.871 269.542 491.817 257.25 463.958C255.876 460.843 254.633 457.367 253.736 454.077C252.985 451.32 252.801 446.687 251.105 444.491L250.532 443.801Z"/>
	<path fill="#00A67F" transform="scale(0.483398 0.483398)" d="M385.999 510.713L385.938 472.236C385.913 466.046 385.227 458.962 386.118 452.897C390.239 449.49 395.128 447.043 399.717 444.338L427.309 428.126L511.586 377.097L638.003 451.25L637.947 512.502L637.903 540.541L637.935 554.194L637.516 573.512L637.36 669.556C637.161 671.257 637.228 672.362 637.365 674C637.503 675.654 637.141 677.564 637.116 679.25C637.013 686.14 636.159 695.905 638.16 702.477L634.925 705.601C631.174 706.785 627.942 709.688 624.537 711.703L596.419 728.474L559.502 750.545C556.614 752.368 553.287 753.763 550.849 756.162C542.493 759.148 534.532 765.251 526.644 769.469C522.146 771.875 519.332 774.002 514 773.556C508.224 773.073 501.315 769.207 496.026 766.727L433.611 734.183L404.016 718.611C399.604 716.274 394.756 714.162 390.577 711.455C388.798 710.303 387.489 708.801 386.12 707.207C386.792 702.372 386.469 697.24 386.479 692.364L386.422 667.446L385.907 615.737L385.925 554.944L385.99 540.758L385.999 510.713Z"/>
	<path fill="#FEDF0C" transform="scale(0.483398 0.483398)" d="M523.121 533.975L522.634 528.735L618.901 475.062L618.869 480.877C609.087 485.307 599.946 491.158 590.656 496.516L555 516.952L534.734 528.634C531.08 530.648 527.252 533.197 523.121 533.975Z"/>
	<path fill="#FEDF0C" transform="scale(0.483398 0.483398)" d="M522.979 696.086L523.06 691C524.262 689.584 526.254 688.746 527.851 687.837L537 682.497L594.532 649.182L618.455 635.728L618.466 642.136C610.468 645.589 602.439 650.967 594.834 655.325L547 683.014C539.539 687.325 531.554 693.126 523.455 695.881L522.979 696.086Z"/>
	<path fill="#FEDF0C" transform="scale(0.483398 0.483398)" d="M523.003 615.91L522.705 610.216L618.457 555.561L618.507 561.8C610.333 565.738 602.662 570.744 594.843 575.333L548.126 602.502C540.315 607 531.539 613.048 523.003 615.91Z"/>
	<path fill="#FEFEFE" transform="scale(0.483398 0.483398)" d="M421.597 463.797L412.787 458.893C414.609 456.867 417.717 455.374 420.04 453.915L437.307 443.302L511.698 398.07L515.375 400.589C514.181 402.355 513.022 403.85 511.332 405.182C501.699 412.769 490.659 419.153 480.475 426.017L442.596 451.117C435.771 455.471 428.824 460.151 421.597 463.797Z"/>
	<path fill="#FEFEFE" transform="scale(0.483398 0.483398)" d="M419.964 707.367L403.209 698.672L402.912 636.547L419.994 646.076L419.964 707.367Z"/>
	<path fill="#FEFEFE" transform="scale(0.483398 0.483398)" d="M419.604 544.35L402.991 535.585L402.915 473.677L437.976 492.622L437.29 492.596C431.333 492.278 425.439 488.244 419.999 485.912L419.604 544.35Z"/>
	<path fill="#FEFEFE" transform="scale(0.483398 0.483398)" d="M419.589 626.395L402.974 617.561L403.062 554.211C407.281 557.578 412.548 559.923 417.295 562.473L435.956 572.555L483.957 597.881L498.5 605.484C501.291 606.947 504.325 608.248 506.849 610.133L507.081 613.45L499.284 609.581L419.654 566.026L419.589 626.395Z"/>
	<path fill="#DA900B" transform="scale(0.483398 0.483398)" d="M523.003 615.91C531.539 613.048 540.315 607 548.126 602.502L594.843 575.333C602.662 570.744 610.333 565.738 618.507 561.8L618.571 616.08L523.131 671.147L523.003 615.91Z"/>
	<path fill="#DA900B" transform="scale(0.483398 0.483398)" d="M618.466 642.136L618.499 696.052L522.971 751.663L522.979 696.086L523.455 695.881C531.554 693.126 539.539 687.325 547 683.014L594.834 655.325C602.439 650.967 610.468 645.589 618.466 642.136Z"/>
	<path fill="#DA900B" transform="scale(0.483398 0.483398)" d="M419.589 626.395L419.654 566.026L499.284 609.581L507.081 613.45L507.032 672.551L495.654 666.627L419.589 626.395Z"/>
	<path fill="#FEFEFE" transform="scale(0.483398 0.483398)" d="M457.171 604.538L457.613 605.445C460.828 606.018 463.737 607.617 466.608 609.118L466.614 620.216L466.382 623.46L465.5 623.922L457.018 620.656L457.171 604.538Z"/>
	<path fill="#08D1C7" transform="scale(0.483398 0.483398)" d="M457.171 604.538L457.613 605.445L457.296 614.894C460.48 616.412 463.912 617.913 466.614 620.216L466.382 623.46L465.5 623.922L457.018 620.656L457.171 604.538Z"/>
	<path fill="#00A67F" transform="scale(0.483398 0.483398)" d="M457.018 620.656L444.754 614.608C444.707 610.408 444.203 605.63 445.121 601.536C446.459 600.374 446.767 600.215 448.5 599.848C450.975 600.459 454.759 602.139 456.583 603.929L457.171 604.538L457.018 620.656Z"/>
	<path fill="#DA900B" transform="scale(0.483398 0.483398)" d="M523.121 533.975C527.252 533.197 531.08 530.648 534.734 528.634L555 516.952L590.656 496.516C599.946 491.158 609.087 485.307 618.869 480.877L618.735 535.548L541.129 579.833C538.814 581.141 524.538 589.979 522.997 589.867L523.005 551.733C523.008 546.041 522.393 539.592 523.121 533.975Z"/>
	<path fill="#DA900B" transform="scale(0.483398 0.483398)" d="M419.604 544.35L419.999 485.912C425.439 488.244 431.333 492.278 437.29 492.596L437.976 492.622L492.971 522.186L501.498 526.656C503.437 527.631 505.602 528.167 506.734 530.073L506.953 591.087L496.225 585.3L419.604 544.35Z"/>
	<path fill="#FEFEFE" transform="scale(0.483398 0.483398)" d="M457.115 522.864L457.498 523.096L467.007 527.6C467.017 531.471 467.559 536.214 466.588 539.944C465.063 537.046 459.941 534.711 457.078 533.034L457.115 522.864Z"/>
	<path fill="#00A67F" transform="scale(0.483398 0.483398)" d="M466.588 539.944L466.252 541.717C464.157 541.347 462.127 539.441 460.124 538.598C458.516 537.921 457.442 538.359 456 537.982C454.793 537.666 453.563 536.79 452.419 536.25L444.779 532.825C444.68 528.747 443.977 523.671 445.054 519.75C446.212 518.568 446.432 518.196 448.085 517.789C451.068 519.181 454.704 520.602 457.115 522.864L457.078 533.034C459.941 534.711 465.063 537.046 466.588 539.944Z"/>
	<path fill="#DA900B" transform="scale(0.483398 0.483398)" d="M419.994 646.076L504.567 689.924C505.704 690.586 506.703 690.815 506.972 692.25L507.008 752.992L497.306 747.755L419.964 707.367L419.994 646.076Z"/>
	<path fill="#08D1C7" transform="scale(0.483398 0.483398)" d="M457.026 691.784L457.583 695.5C461.063 697.127 464.336 698.343 467.574 700.497L467.416 704.75L466.5 705.316L457.404 701.418L457.026 691.784Z"/>
	<path fill="#FEFEFE" transform="scale(0.483398 0.483398)" d="M457.039 685.406L467.501 690.766L467.574 700.497C464.336 698.343 461.063 697.127 457.583 695.5L457.026 691.784L457.039 685.406Z"/>
	<path fill="#00A67F" transform="scale(0.483398 0.483398)" d="M457.404 701.418L445.433 695.612L445.569 683.5C446.614 682.044 446.768 681.803 448.5 681.071C451.354 681.583 454.508 683.928 457.039 685.406L457.026 691.784L457.404 701.418Z"/>
	<path fill="#DA900B" transform="scale(0.483398 0.483398)" d="M515.375 400.589L572.761 434.143L588.505 443.116C590.728 444.379 593.601 445.619 595.591 447.175L613.129 457.579L531.534 503.789L519.335 510.801C517.45 511.901 515.239 513.54 513.131 514.063L480.565 495.786C479.171 495.57 477.265 494.211 476.002 493.542L465.193 487.677L421.597 463.797C428.824 460.151 435.771 455.471 442.596 451.117L480.475 426.017C490.659 419.153 501.699 412.769 511.332 405.182C513.022 403.85 514.181 402.355 515.375 400.589Z"/>
</svg>
