<?xml version="1.0" encoding="utf-8" ?>
<svg xmlns="http://www.w3.org/2000/svg" xmlns:xlink="http://www.w3.org/1999/xlink" width="346" height="346">
	<path fill="#00D98C" transform="matrix(0.675781 0 0 0.675781 -0.00012207 3.05176e-05)" d="M243.574 78.2272C220.187 87.1466 201.014 103.605 191.731 127.123C184.214 146.168 178.364 141.812 161.354 140.803C152.675 140.288 143.659 140.551 135.156 142.445C106.089 148.922 80.9612 174.073 75.5091 203.445C71.7273 223.818 76.5244 244.339 88.2558 261.374C83.1953 272.004 76.3826 302.892 77.9393 312.547L77.9978 312.876C28.0265 282.932 11.5601 219.142 35.4551 167.25C54.9555 124.902 95.1687 95.7974 142.027 91.8156C146.6 91.4269 151.347 91.6383 155.942 91.6243C156.772 90.5233 156.959 89.4352 157.579 88.2677C168.009 68.6121 191.444 48.9437 210.951 38.8532C229.808 29.099 249.916 23.6962 271.14 23.3968C325.511 23.2783 374.853 52.095 397.84 102.339L401.92 112.382C402.689 114.408 402.651 116.897 404.97 117.418C410.516 118.664 416.045 119.803 421.454 121.594C459.731 134.265 487.183 173.548 487.714 213.625C488.257 254.557 470.077 289.447 433.766 310.397C433.69 297.658 430.216 283.347 427.015 271.125L424.743 263C423.902 260.3 422.986 259.993 424.837 257.844C453.178 224.949 435.834 166.574 389.739 164.26C383.781 163.961 376.317 165.573 370.875 162.975C361.879 158.681 361.905 152.236 360.287 143.594C350.177 89.6137 294.318 60.2289 243.574 78.2272Z"/>
	<path fill="#00D98C" transform="matrix(0.675781 0 0 0.675781 -0.00012207 3.05176e-05)" d="M262.156 484.992C256.897 485.012 251.569 485.165 246.324 484.759C138.311 476.411 69.3635 369.327 102.542 267.771C106.863 254.543 112.391 243.841 120.045 232.172C149.7 186.964 196.799 162.016 250.409 158.82L250.459 158.803C311.014 156.152 372.298 190.916 399.627 245.308C408.676 263.32 416.306 286.599 417.311 306.608L417.438 319.061C417.438 327.528 417.201 335.846 416.031 344.25C405.206 422.013 340.699 480.745 262.156 484.992ZM230.221 209.875C189.445 221.249 156.393 251.786 145.741 293.375L146.625 293.713L230.603 293.261L230.642 210.125C230.301 209.891 230.451 209.954 230.221 209.875ZM281.719 210.505C281.126 217.502 281.465 224.742 281.465 231.767L281.467 286.416C281.468 288.385 281.045 291.556 281.595 293.404L353.861 293.332C357.5 293.328 361.256 293.469 364.875 293.07L365.672 292.625C364.933 288.173 362.83 283.329 361.082 279.171C347.258 246.283 317.407 217.712 281.719 210.505ZM145.69 343.787C152.091 384.177 190.443 423.147 229.994 433.454L230.495 433.125C231.168 426.115 230.772 418.808 230.776 411.768L230.749 346.755C230.748 345.83 230.863 344.757 230.627 343.869L145.69 343.787ZM281.49 343.768L281.936 433.492C283.015 432.834 284.551 432.742 285.759 432.324L295.785 428.42C310.349 422.084 323.992 413.467 335.244 402.197C347.244 390.011 356.473 375.323 362.299 359.252L365.787 348.251C366.218 346.769 366.281 345.272 366.948 343.857L281.49 343.768Z"/>
</svg>
